<?xml version="1.0" encoding="utf-8" ?>
<svg baseProfile="full" height="1600px" version="1.1" viewBox="0,0,22360,17280" width="2560px" xmlns="http://www.w3.org/2000/svg" xmlns:ev="http://www.w3.org/2001/xml-events" xmlns:xlink="http://www.w3.org/1999/xlink"><defs /><rect fill="rgb(255,255,255)" height="17280px" stroke="black" stroke-width="100" width="22360px" x="0" y="0" /><polyline fill="rgb(255,255,255)" points="6188.50998314,14887.8914435 4494.04568818,13005.9981916" stroke="black" stroke-width="5" /><polyline fill="rgb(255,255,255)" points="6752.71967438,15290.3383051 4109.66604364,12354.9298655" stroke="black" stroke-width="5" /><polyline fill="rgb(255,255,255)" points="7204.01759235,15567.3839383 3859.21671466,11852.6062239" stroke="black" stroke-width="5" /><polyline fill="rgb(255,255,255)" points="7598.92429739,15781.8007846 3707.71720287,11460.1774876" stroke="black" stroke-width="5" /><polyline fill="rgb(255,255,255)" points="7953.32519336,15951.2313724 3576.87529896,11090.6913492" stroke="black" stroke-width="5" /><polyline fill="rgb(255,255,255)" points="8266.10717278,16074.4394707 3467.79891213,10745.3782664" stroke="black" stroke-width="5" /><polyline fill="rgb(255,255,255)" points="8578.8891522,16197.647569 3401.86798453,10447.9830706" stroke="black" stroke-width="5" /><polyline fill="rgb(255,255,255)" points="8862.48340844,16288.4394166 3335.93705692,10150.5878749" stroke="black" stroke-width="5" /><polyline fill="rgb(255,255,255)" points="9125.59704264,16356.4852291 3275.38192418,9859.16310411" stroke="black" stroke-width="5" /><polyline fill="rgb(255,255,255)" points="9388.71067684,16424.5310416 3251.2119307,9608.14812439" stroke="black" stroke-width="5" /><polyline fill="rgb(255,255,255)" points="9651.82431105,16492.5768541 3227.04193722,9357.13314466" stroke="black" stroke-width="5" /><polyline fill="rgb(255,255,255)" points="9881.03468965,16522.9692866 3202.87194374,9106.11816494" stroke="black" stroke-width="5" /><polyline fill="rgb(255,255,255)" points="10110.0241055,16553.1163151 3186.32987415,8863.57485296" stroke="black" stroke-width="5" /><polyline fill="rgb(255,255,255)" points="10339.0135213,16583.2633437 3192.03411784,8645.73857491" stroke="black" stroke-width="5" /><polyline fill="rgb(255,255,255)" points="10568.0029372,16613.4103722 3197.73836153,8427.90229686" stroke="black" stroke-width="5" /><polyline fill="rgb(255,255,255)" points="10777.4645449,16621.8695726 3203.44260523,8210.06601882" stroke="black" stroke-width="5" /><polyline fill="rgb(255,255,255)" points="10980.9080538,16623.6449972 3209.14684892,7992.22974077" stroke="black" stroke-width="5" /><polyline fill="rgb(255,255,255)" points="11184.3515627,16625.4204218 3232.64980605,7794.16093662" stroke="black" stroke-width="5" /><polyline fill="rgb(255,255,255)" points="11387.7950717,16627.1958464 3261.38322402,7601.90114773" stroke="black" stroke-width="5" /><polyline fill="rgb(255,255,255)" points="11591.2385806,16628.971271 3290.11664199,7409.64135884" stroke="black" stroke-width="5" /><polyline fill="rgb(255,255,255)" points="11775.0494081,16608.9423938 3318.85005996,7217.38156995" stroke="black" stroke-width="5" /><polyline fill="rgb(255,255,255)" points="11958.1140653,16588.0848108 3347.58347793,7025.12178106" stroke="black" stroke-width="5" /><polyline fill="rgb(255,255,255)" points="12141.1787226,16567.2272277 3390.37951202,6848.48010962" stroke="black" stroke-width="5" /><polyline fill="rgb(255,255,255)" points="12324.2433799,16546.3696446 3437.90875435,6677.0951985" stroke="black" stroke-width="5" /><polyline fill="rgb(255,255,255)" points="12507.3080372,16525.5120615 3485.43799669,6505.71028738" stroke="black" stroke-width="5" /><polyline fill="rgb(255,255,255)" points="12679.0548272,16492.0847135 3532.96723902,6334.32537626" stroke="black" stroke-width="5" /><polyline fill="rgb(255,255,255)" points="12845.0227925,16452.2393303 3580.49648136,6162.94046514" stroke="black" stroke-width="5" /><polyline fill="rgb(255,255,255)" points="13010.9907578,16412.3939472 3632.14160943,5996.12670822" stroke="black" stroke-width="5" /><polyline fill="rgb(255,255,255)" points="13176.9587231,16372.548564 3695.73949414,5842.58783242" stroke="black" stroke-width="5" /><polyline fill="rgb(255,255,255)" points="13342.9266885,16332.7031808 3759.33737885,5689.04895662" stroke="black" stroke-width="5" /><polyline fill="rgb(255,255,255)" points="13508.8946538,16292.8577977 3822.93526356,5535.51008081" stroke="black" stroke-width="5" /><polyline fill="rgb(255,255,255)" points="13660.8114853,16237.4070495 3886.53314827,5381.97120501" stroke="black" stroke-width="5" /><polyline fill="rgb(255,255,255)" points="13811.8198424,16180.9473383 3950.13103298,5228.4323292" stroke="black" stroke-width="5" /><polyline fill="rgb(255,255,255)" points="13962.8281996,16124.4876271 4019.1400585,5080.9031341" stroke="black" stroke-width="5" /><polyline fill="rgb(255,255,255)" points="14113.8365567,16068.0279159 4097.02858697,4943.2356261" stroke="black" stroke-width="5" /><polyline fill="rgb(255,255,255)" points="14264.8449138,16011.5682047 4174.91711543,4805.5681181" stroke="black" stroke-width="5" /><polyline fill="rgb(255,255,255)" points="14415.853271,15955.1084935 4252.8056439,4667.90061009" stroke="black" stroke-width="5" /><polyline fill="rgb(255,255,255)" points="14554.9045555,15885.3691079 4330.69417237,4530.23310209" stroke="black" stroke-width="5" /><polyline fill="rgb(255,255,255)" points="14692.3336205,15813.8280649 4408.58270084,4392.56559409" stroke="black" stroke-width="5" /><polyline fill="rgb(255,255,255)" points="14829.7626855,15742.2870218 4489.14739562,4257.87026989" stroke="black" stroke-width="5" /><polyline fill="rgb(255,255,255)" points="14967.1917505,15670.7459788 4580.19869537,4134.82150041" stroke="black" stroke-width="5" /><polyline fill="rgb(255,255,255)" points="15104.6208154,15599.2049358 4671.24999512,4011.77273092" stroke="black" stroke-width="5" /><polyline fill="rgb(255,255,255)" points="15242.0498804,15527.6638928 4762.30129487,3888.72396144" stroke="black" stroke-width="5" /><polyline fill="rgb(255,255,255)" points="15372.1373176,15447.9691461 4853.35259462,3765.67519195" stroke="black" stroke-width="5" /><polyline fill="rgb(255,255,255)" points="15496.8229488,15362.275086 4944.40389437,3642.62642246" stroke="black" stroke-width="5" /><polyline fill="rgb(255,255,255)" points="15621.5085799,15276.5810259 5035.45519412,3519.57765298" stroke="black" stroke-width="5" /><polyline fill="rgb(255,255,255)" points="15746.1942111,15190.8869658 5136.80134978,3407.9624793" stroke="black" stroke-width="5" /><polyline fill="rgb(255,255,255)" points="15870.8798422,15105.1929057 5240.37381548,3298.81987342" stroke="black" stroke-width="5" /><polyline fill="rgb(255,255,255)" points="15995.5654734,15019.4988456 5343.94628118,3189.67726754" stroke="black" stroke-width="5" /><polyline fill="rgb(255,255,255)" points="16118.7708394,14932.1607845 5447.51874688,3080.53466166" stroke="black" stroke-width="5" /><polyline fill="rgb(255,255,255)" points="16231.1184753,14832.7639925 5551.09121258,2971.39205578" stroke="black" stroke-width="5" /><polyline fill="rgb(255,255,255)" points="16343.4661113,14733.3672006 5654.66367828,2862.2494499" stroke="black" stroke-width="5" /><polyline fill="rgb(255,255,255)" points="16455.8137473,14633.9704086 5762.29426599,2757.6138451" stroke="black" stroke-width="5" /><polyline fill="rgb(255,255,255)" points="16568.1613833,14534.5736166 5878.14822079,2662.11121472" stroke="black" stroke-width="5" /><polyline fill="rgb(255,255,255)" points="16680.5090192,14435.1768247 5994.00217559,2566.60858434" stroke="black" stroke-width="5" /><polyline fill="rgb(255,255,255)" points="16792.8566552,14335.7800327 6109.8561304,2471.10595395" stroke="black" stroke-width="5" /><polyline fill="rgb(255,255,255)" points="16897.714172,14228.0646207 6225.7100852,2375.60332357" stroke="black" stroke-width="5" /><polyline fill="rgb(255,255,255)" points="16997.7502254,14114.9944311 6341.56404,2280.10069318" stroke="black" stroke-width="5" /><polyline fill="rgb(255,255,255)" points="17097.7862789,14001.9242415 6457.4179948,2184.5980628" stroke="black" stroke-width="5" /><polyline fill="rgb(255,255,255)" points="17197.8223323,13888.8540519 6583.510662,2100.46667454" stroke="black" stroke-width="5" /><polyline fill="rgb(255,255,255)" points="17297.8583857,13775.7838622 6711.77849505,2018.75105269" stroke="black" stroke-width="5" /><polyline fill="rgb(255,255,255)" points="17397.8944391,13662.7136726 6840.04632809,1937.03543084" stroke="black" stroke-width="5" /><polyline fill="rgb(255,255,255)" points="17496.1782855,13547.69746 6968.31416114,1855.31980899" stroke="black" stroke-width="5" /><polyline fill="rgb(255,255,255)" points="17583.5534025,13420.5658759 7096.58199418,1773.60418714" stroke="black" stroke-width="5" /><polyline fill="rgb(255,255,255)" points="17670.9285195,13293.4342918 7224.84982723,1691.88856529" stroke="black" stroke-width="5" /><polyline fill="rgb(255,255,255)" points="17758.3036365,13166.3027077 7358.32053833,1615.95132492" stroke="black" stroke-width="5" /><polyline fill="rgb(255,255,255)" points="17845.6787534,13039.1711236 7499.52308948,1548.60116287" stroke="black" stroke-width="5" /><polyline fill="rgb(255,255,255)" points="17933.0538704,12912.0395396 7640.72564062,1481.25100082" stroke="black" stroke-width="5" /><polyline fill="rgb(255,255,255)" points="18020.4289874,12784.9079555 7781.92819177,1413.90083877" stroke="black" stroke-width="5" /><polyline fill="rgb(255,255,255)" points="18096.9731313,12645.7473571 7923.13074291,1346.55067672" stroke="black" stroke-width="5" /><polyline fill="rgb(255,255,255)" points="18170.9182028,12503.7001965 8064.33329406,1279.20051467" stroke="black" stroke-width="5" /><polyline fill="rgb(255,255,255)" points="18244.8632742,12361.6530358 8207.74154358,1214.30002884" stroke="black" stroke-width="5" /><polyline fill="rgb(255,255,255)" points="18318.8083457,12219.6058751 8362.85520762,1162.39972286" stroke="black" stroke-width="5" /><polyline fill="rgb(255,255,255)" points="18392.7534172,12077.5587144 8517.96887166,1110.49941688" stroke="black" stroke-width="5" /><polyline fill="rgb(255,255,255)" points="18466.6984887,11935.5115537 8673.0825357,1058.59911091" stroke="black" stroke-width="5" /><polyline fill="rgb(255,255,255)" points="18530.2346423,11781.9041185 8828.19619974,1006.69880493" stroke="black" stroke-width="5" /><polyline fill="rgb(255,255,255)" points="18589.4572641,11623.5060211 8983.30986378,954.79849895" stroke="black" stroke-width="5" /><polyline fill="rgb(255,255,255)" points="18648.679886,11465.1079237 9141.3153072,906.109839351" stroke="black" stroke-width="5" /><polyline fill="rgb(255,255,255)" points="18707.9025079,11306.7098262 9311.90923837,871.402111786" stroke="black" stroke-width="5" /><polyline fill="rgb(255,255,255)" points="18767.1251298,11148.3117288 9482.50316955,836.694384221" stroke="black" stroke-width="5" /><polyline fill="rgb(255,255,255)" points="18826.3477517,10989.9136313 9653.09710072,801.986656656" stroke="black" stroke-width="5" /><polyline fill="rgb(255,255,255)" points="18857.1869506,10799.9925491 9823.69103189,767.278929092" stroke="black" stroke-width="5" /><polyline fill="rgb(255,255,255)" points="18885.9203686,10607.7327602 9994.28496307,732.571201527" stroke="black" stroke-width="5" /><polyline fill="rgb(255,255,255)" points="18914.6537866,10415.4729713 10175.1860568,709.310737719" stroke="black" stroke-width="5" /><polyline fill="rgb(255,255,255)" points="18943.3872045,10223.2131824 10363.6740766,694.476408851" stroke="black" stroke-width="5" /><polyline fill="rgb(255,255,255)" points="18972.1206225,10030.9533935 10552.1620963,679.642079982" stroke="black" stroke-width="5" /><polyline fill="rgb(255,255,255)" points="19000.8540405,9838.69360465 10740.650116,664.807751113" stroke="black" stroke-width="5" /><polyline fill="rgb(255,255,255)" points="19029.5874584,9646.43381576 10929.1381358,649.973422244" stroke="black" stroke-width="5" /><polyline fill="rgb(255,255,255)" points="19058.3208764,9454.17402687 11126.4849949,644.977831337" stroke="black" stroke-width="5" /><polyline fill="rgb(255,255,255)" points="19087.0542944,9261.91423798 11336.5896411,654.151198297" stroke="black" stroke-width="5" /><polyline fill="rgb(255,255,255)" points="19115.7877123,9069.65444909 11546.6942872,663.324565258" stroke="black" stroke-width="5" /><polyline fill="rgb(255,255,255)" points="19144.5211303,8877.3946602 11756.7989334,672.497932218" stroke="black" stroke-width="5" /><polyline fill="rgb(255,255,255)" points="19173.2545483,8685.13487131 11966.9035795,681.671299179" stroke="black" stroke-width="5" /><polyline fill="rgb(255,255,255)" points="19168.7432054,8455.95303495 12198.0897872,714.258112194" stroke="black" stroke-width="5" /><polyline fill="rgb(255,255,255)" points="19154.0330598,8215.44428069 12435.7433804,754.027684542" stroke="black" stroke-width="5" /><polyline fill="rgb(255,255,255)" points="19139.3229142,7974.93552644 12673.3969737,793.797256889" stroke="black" stroke-width="5" /><polyline fill="rgb(255,255,255)" points="19124.6127686,7734.42677218 12911.0505669,833.566829237" stroke="black" stroke-width="5" /><polyline fill="rgb(255,255,255)" points="19083.1448356,7464.20048424 13175.4619476,903.053935267" stroke="black" stroke-width="5" /><polyline fill="rgb(255,255,255)" points="19030.828273,7181.92557271 13450.7219578,984.589664899" stroke="black" stroke-width="5" /><polyline fill="rgb(255,255,255)" points="18978.5117105,6899.65066117 13725.9819679,1066.12539453" stroke="black" stroke-width="5" /><polyline fill="rgb(255,255,255)" points="18908.7460425,6597.99655466 14018.6910836,1167.04031913" stroke="black" stroke-width="5" /><polyline fill="rgb(255,255,255)" points="18799.9767999,6253.02459009 14350.4037739,1311.27310179" stroke="black" stroke-width="5" /><polyline fill="rgb(255,255,255)" points="18691.2075572,5908.05262552 14682.1164642,1455.50588445" stroke="black" stroke-width="5" /><polyline fill="rgb(255,255,255)" points="18522.7329731,5496.77116147 15073.5344959,1666.04816659" stroke="black" stroke-width="5" /><polyline fill="rgb(255,255,255)" points="18315.8730239,5042.85843064 15503.3378927,1919.22171552" stroke="black" stroke-width="5" /><polyline fill="rgb(255,255,255)" points="17963.8065636,4427.67753123 16078.3478007,2333.66343302" stroke="black" stroke-width="5" /></svg>